<svg id="Layer_1" enable-background="new 0 0 512 512" viewBox="0 0 512 512" xmlns="http://www.w3.org/2000/svg"><g id="Layer_2_00000111184478198513385770000000388847574860170163_"><g id="Layer_2_copy_11"><g id="_41"><g id="_41-2"><path d="m256 136.5c-40.8 0-73.9 33.1-73.9 73.9v91.3c0 40.8 33.1 73.9 73.9 73.9 40.8 0 73.9-33.1 73.9-73.9v-91.2c0-40.9-33.1-74-73.9-74zm25.4 165.1c0 14.1-11.4 25.4-25.4 25.4-14.1 0-25.4-11.4-25.4-25.4v-91.3c0-14.1 11.4-25.4 25.4-25.4 14.1 0 25.4 11.4 25.4 25.4z"/><path d="m488 136.5h-.5c-13.3 0-24 10.7-24 24v68.1h-42.8v-67.8c.3-13.4-10.4-24.4-23.7-24.7-13.4-.3-24.4 10.4-24.7 23.7v1 92.1c0 13.4 10.8 24.2 24.2 24.2h67v74.5c0 13.3 10.7 24 24 24h.5c13.3 0 24-10.7 24-24v-98.8-92.3c0-13.3-10.7-24-24-24z"/><path d="m115.7 136.5h-.5c-13.3 0-24 10.7-24 24v68.1h-42.7v-67.8c.3-13.4-10.4-24.4-23.7-24.7s-24.5 10.2-24.8 23.6v1 92.1c0 13.4 10.8 24.2 24.2 24.2h67v74.5c0 13.3 10.7 24 24 24h.5c13.3 0 24-10.7 24-24v-98.8-92.3c0-13.2-10.7-23.9-24-23.9z"/></g></g></g></g></svg>